HIERARCHY
ROOT hip
{
	OFFSET 0.00000 0.00000 0.00000
	CHANNELS 6 Xposition Yposition Zposition Zrotation Yrotation Xrotation 
	JOINT rightuplegdummy
	{
		OFFSET 0 0 0
		CHANNELS 3 Zrotation Yrotation Xrotation
		JOINT rightupleg
		{
			OFFSET -3.52197 -3.41223 0.04002
			CHANNELS 3 Zrotation Yrotation Xrotation
			JOINT rightleg
			{
				OFFSET 0.00006 -17.42390 1.60435
				CHANNELS 3 Zrotation Yrotation Xrotation
				JOINT rightfoot
				{
					OFFSET 0.06153 -16.50078 -1.63901
					CHANNELS 3 Zrotation Yrotation Xrotation
					JOINT righttoes
					{
						OFFSET 0.00298 -1.73825 3.34613
						CHANNELS 3 Zrotation Yrotation Xrotation
						End Site
						{
							OFFSET 0.00480 -0.05416 3.85043
						}
					}
				}
			}
		}
	}
	JOINT spinedummy
	{
		OFFSET 0 0 0
		CHANNELS 3 Zrotation Yrotation Xrotation
		JOINT spine
		{
			OFFSET 0.00000 4.68130 0.00000
			CHANNELS 3 Zrotation Yrotation Xrotation
			JOINT spine1
			{
				OFFSET -0.00000 10.10138 0.05002
				CHANNELS 3 Zrotation Yrotation Xrotation
				JOINT headdummy
				{
					OFFSET 0 0 0
					CHANNELS 3 Zrotation Yrotation Xrotation
					JOINT head
					{
						OFFSET -0.00000 3.43865 0.00438
						CHANNELS 3 Zrotation Yrotation Xrotation
						End Site
						{
							OFFSET -0.11417 5.02924 0.98962
						}
					}
				}
				JOINT leftshoulder1dummy
				{
					OFFSET 0 0 0
					CHANNELS 3 Zrotation Yrotation Xrotation
					JOINT leftshoulder1
					{
						OFFSET 3.53937 -0.14262 -0.08662
						CHANNELS 3 Zrotation Yrotation Xrotation
						JOINT leftarm
						{
							OFFSET 4.04833 -0.00133 0.12681
							CHANNELS 3 Zrotation Yrotation Xrotation
							JOINT leftforearm
							{
								OFFSET 10.33880 -0.01036 -0.55515
								CHANNELS 3 Zrotation Yrotation Xrotation
								JOINT lefthand
								{
									OFFSET 8.69677 0.07543 0.40060
									CHANNELS 3 Zrotation Yrotation Xrotation
									End Site
									{
										OFFSET 5.28377 -0.21905 0.59205
									}
								}
							}
						}
					}
				}
				JOINT rightshoulderdummy
				{
					OFFSET 0 0 0
					CHANNELS 3 Zrotation Yrotation Xrotation
					JOINT rightshoulder
					{
						OFFSET -3.53937 -0.14262 -0.08660
						CHANNELS 3 Zrotation Yrotation Xrotation
						JOINT rightarm
						{
							OFFSET -4.04833 -0.00133 0.12683
							CHANNELS 3 Zrotation Yrotation Xrotation
							JOINT rightforearm
							{
								OFFSET -10.37987 -0.01039 -0.55511
								CHANNELS 3 Zrotation Yrotation Xrotation
								JOINT righthand
								{
									OFFSET -8.67398 0.07538 0.40058
									CHANNELS 3 Zrotation Yrotation Xrotation
									End Site
									{
										OFFSET -5.24810 -0.21916 0.59204
									}
								}
							}
						}
					}
				}
			}
		}
	}
	JOINT leftuplegdummy
	{
		OFFSET 0 0 0
		CHANNELS 3 Zrotation Yrotation Xrotation
		JOINT leftupleg
		{
			OFFSET 3.52197 -3.41223 0.04002
			CHANNELS 3 Zrotation Yrotation Xrotation
			JOINT leftleg
			{
				OFFSET -0.00012 -17.42399 1.60337
				CHANNELS 3 Zrotation Yrotation Xrotation
				JOINT leftfoot
				{
					OFFSET -0.09972 -16.50070 -1.63802
					CHANNELS 3 Zrotation Yrotation Xrotation
					JOINT lefttoes
					{
						OFFSET -0.01575 -1.73823 3.34611
						CHANNELS 3 Zrotation Yrotation Xrotation
						End Site
						{
							OFFSET 0.03150 -0.01868 3.85031
						}
					}
				}
			}
		}
	}
}
MOTION
Frames: 9
Frame Time: 0.033333
1.4961 37.4742 30.3820 178.2250 -71.8209 176.6020 0.0000 -0.0000 0.0000 -18.5379 -10.1091 -2.4594 2.7924 3.8686 32.3479 16.4347 0.3137 -13.8735 0.0000 0.0000 -0.0000 0.0000 -0.0000 0.0000 -6.9170 0.2970 4.0550 3.6691 -2.0083 20.2143 -0.0000 -0.0000 -0.0000 26.2822 -40.8415 -25.7988 -0.0000 -0.0000 -0.0000 -23.7570 -3.2979 2.0401 -46.9820 -34.4693 30.7528 -177.2698 -82.4753 178.9870 10.8708 7.2419 0.1251 -0.0000 -0.0000 -0.0000 30.6118 5.5018 3.2979 32.0876 4.4073 -12.2200 0.8693 24.1702 -5.4328 -21.5118 0.2394 -1.0468 0.0000 -0.0000 0.0000 11.0222 5.3490 -5.7185 -4.3399 -5.5608 34.8915 -13.5690 -0.8534 -19.4856 0.0000 -0.0000 -0.0000
1.1523 38.7841 30.4489 -179.0890 -67.1978 174.9560 0.0000 -0.0000 0.0000 -18.1703 -12.7078 -3.5302 6.8493 10.4431 28.7176 16.4508 -1.1968 -3.1438 0.0000 0.0000 -0.0000 0.0000 -0.0000 0.0000 -5.9086 0.9206 3.4584 3.5959 -1.1429 18.2602 -0.0000 -0.0000 -0.0000 22.5221 -40.0200 -19.9658 -0.0000 -0.0000 -0.0000 -24.6751 -3.4020 2.1316 -51.0518 -22.3107 32.0635 -177.4199 -82.1562 179.2503 11.5468 6.3675 0.0555 -0.0000 -0.0000 -0.0000 29.9205 5.4231 3.2083 36.1870 4.8155 -14.0902 1.2481 25.3384 -12.9757 -34.3687 -1.2595 -1.2340 0.0000 -0.0000 0.0000 11.1911 6.2894 -1.3375 -1.3139 -2.6443 26.6713 -15.4942 -0.0998 -12.6562 0.0000 -0.0000 -0.0000
0.9266 39.9608 30.3930 -177.2160 -63.4910 174.6490 0.0000 -0.0000 0.0000 -17.1686 -16.4502 -5.6723 8.9301 15.1349 25.8988 15.8694 -2.5749 7.1907 0.0000 0.0000 -0.0000 0.0000 -0.0000 0.0000 -5.5406 1.1160 2.5030 3.9119 -0.7380 16.8141 -0.0000 -0.0000 -0.0000 21.2363 -38.5831 -16.3493 -0.0000 -0.0000 -0.0000 -23.8990 -3.6439 2.1531 -53.4238 -13.9559 33.3738 -177.5644 -82.1139 179.7784 10.6584 4.9828 -0.0687 -0.0000 -0.0000 -0.0000 30.3234 5.3592 3.2205 37.3043 3.1039 -12.1675 1.0536 30.7850 -8.0565 -25.2266 -3.4843 -0.5271 0.0000 -0.0000 0.0000 11.4919 6.0867 0.7291 0.8815 1.0311 20.6677 -15.8758 0.9896 -4.3595 0.0000 -0.0000 -0.0000
0.8441 40.5957 30.3941 -176.5450 -59.5470 174.7010 0.0000 -0.0000 0.0000 -16.2444 -18.3718 -8.2730 6.6000 12.0142 24.1530 14.4411 -2.6678 9.7746 0.0000 0.0000 -0.0000 0.0000 -0.0000 0.0000 -4.6868 1.0737 2.1127 3.1221 -0.3526 17.2235 -0.0000 -0.0000 -0.0000 21.3394 -36.2468 -16.1282 -0.0000 -0.0000 -0.0000 -22.5327 -3.9985 2.1627 -53.7522 -11.0403 33.6712 -178.5747 -82.4538 -176.0633 8.8904 3.8666 -0.1428 -0.0000 -0.0000 -0.0000 30.5183 5.2213 3.1869 37.1534 2.5888 -13.4809 0.4084 37.8945 4.1817 -3.0197 -0.9200 -0.0921 0.0000 -0.0000 0.0000 11.2611 4.0575 2.5701 1.3169 1.6910 17.4329 -14.0581 1.3175 -0.6966 0.0000 -0.0000 -0.0000
0.7587 40.6365 30.5154 -175.9280 -54.9916 174.1130 0.0000 -0.0000 0.0000 -15.4463 -20.5144 -10.7590 3.6866 7.4028 22.1806 12.5150 -2.1716 8.5615 0.0000 0.0000 -0.0000 0.0000 -0.0000 0.0000 -3.0253 0.8327 2.6359 2.0257 -0.1102 17.7118 -0.0000 -0.0000 -0.0000 20.1525 -33.4037 -16.4206 -0.0000 -0.0000 -0.0000 -21.2723 -4.1335 2.1112 -53.1393 -11.4684 33.7831 -179.1384 -83.0364 -173.7210 10.5791 3.7707 -0.1723 -0.0000 -0.0000 -0.0000 28.6223 4.8841 2.9081 37.7233 4.5244 -12.1129 0.4238 44.2460 4.4564 8.5258 0.2064 0.4119 0.0000 -0.0000 0.0000 11.1228 2.8595 5.2047 0.0175 -1.8408 16.1516 -13.2514 1.0372 -2.5523 0.0000 -0.0000 -0.0000
0.6749 40.1389 30.6117 -175.4430 -50.4480 173.9800 0.0000 -0.0000 0.0000 -13.7606 -24.8536 -13.9139 3.2243 7.5655 19.0047 11.1724 -1.9419 8.6475 0.0000 0.0000 -0.0000 0.0000 -0.0000 0.0000 -2.6684 0.6251 3.5261 2.3529 -0.3233 16.6367 -0.0000 -0.0000 -0.0000 18.1127 -30.6718 -15.5649 -0.0000 -0.0000 -0.0000 -20.3859 -4.0901 2.0361 -52.3578 -13.6885 34.0117 -178.3207 -84.2839 -175.8829 13.3401 3.9149 -0.1931 -0.0000 -0.0000 -0.0000 27.0637 4.7606 2.7399 36.3669 6.9610 -9.3848 0.7036 51.8097 1.8991 8.0609 -3.0796 0.1329 0.0000 -0.0000 0.0000 12.0963 6.2879 7.3695 -1.8207 -5.3663 15.8144 -14.0309 0.5258 -7.4224 0.0000 -0.0000 -0.0000
0.6897 39.2649 30.6514 -176.7910 -45.8702 175.5890 0.0000 -0.0000 0.0000 -11.6160 -29.6137 -18.4578 3.5059 8.5876 15.4589 10.9101 -1.8962 8.6496 0.0000 0.0000 -0.0000 0.0000 -0.0000 0.0000 -5.0584 0.6869 4.4311 3.8003 -0.7621 15.4618 -0.0000 -0.0000 -0.0000 16.3856 -27.5626 -15.6337 -0.0000 -0.0000 -0.0000 -21.2739 -3.9604 2.0633 -50.1061 -19.5051 32.9848 -174.2274 -87.5743 178.6836 13.7109 3.8983 -0.1998 -0.0000 -0.0000 -0.0000 27.6366 4.9570 2.8524 32.6460 9.6613 -10.7134 0.1071 62.3258 9.6306 3.8320 -5.1238 -0.0396 0.0000 -0.0000 0.0000 11.5648 10.2443 8.7055 -1.4956 -2.3263 15.7599 -13.6236 -0.2268 -14.0205 0.0000 -0.0000 -0.0000
0.8036 38.3702 30.5589 -179.2630 -41.4081 177.6030 0.0000 -0.0000 0.0000 -9.4722 -33.7477 -22.9193 3.8515 4.2278 12.0898 12.6546 -2.1135 7.8170 0.0000 0.0000 -0.0000 0.0000 -0.0000 0.0000 -8.2936 0.6044 4.6060 4.5632 -1.2343 16.7110 -0.0000 -0.0000 -0.0000 15.9652 -23.8563 -18.1716 -0.0000 -0.0000 -0.0000 -23.1297 -3.8171 2.1519 -46.1059 -30.8524 30.8477 -5.8572 -87.0951 9.6144 13.9683 4.3797 -0.1475 -0.0000 -0.0000 -0.0000 28.8675 5.1500 3.0210 30.6788 13.0702 -14.4198 -1.6239 73.2869 18.6433 -3.1682 -6.2063 -0.0307 0.0000 -0.0000 0.0000 9.5820 13.9062 8.6437 -0.2510 0.3421 18.6264 -13.0291 -0.8991 -20.2730 0.0000 -0.0000 -0.0000
0.8486 37.7795 30.0439 179.4300 -36.3310 178.1100 0.0000 -0.0000 0.0000 -6.2712 -35.6828 -25.3394 4.8793 -3.9211 9.5639 13.7835 -2.1382 6.4109 0.0000 0.0000 -0.0000 0.0000 -0.0000 0.0000 -9.6811 -0.0363 3.9968 3.5851 -1.5906 18.3314 -0.0000 -0.0000 -0.0000 15.3381 -19.6952 -18.2842 -0.0000 -0.0000 -0.0000 -23.1158 -3.8100 2.1490 -43.9934 -43.2941 28.1316 -2.6611 -83.4826 5.8069 15.2625 4.4115 -0.1542 -0.0000 -0.0000 -0.0000 29.4054 5.2269 3.0937 32.7775 14.8195 -15.0806 -5.5859 82.4290 19.9085 -9.6001 -7.0189 0.0849 0.0000 -0.0000 0.0000 9.9188 18.9560 9.3363 -0.3268 -1.2758 22.6548 -14.6362 -1.4068 -23.3492 0.0000 -0.0000 -0.0000
